{
  "accessors": [
    {
      "bufferView": 2,
      "componentType": 5126,
      "count": 2211,
      "max": [
        0.0959426611661911,
        0.04657850041985512,
        4.120265960693359
      ],
      "min": [
        -0.0959426611661911,
        -1.1356569528579712,
        0.03807520866394043
      ],
      "type": "VEC3"
    },
    {
      "bufferView": 2,
      "byteOffset": 26532,
      "componentType": 5126,
      "count": 2211,
      "max": [
        1.0,
        1.0,
        1.0
      ],
      "min": [
        -1.0,
        -1.0,
        -1.0
      ],
      "type": "VEC3"
    },
    {
      "bufferView": 1,
      "componentType": 5126,
      "count": 2211,
      "max": [
        1.0,
        1.0
      ],
      "min": [
        -1.0,
        0.0
      ],
      "type": "VEC2"
    },
    {
      "bufferView": 0,
      "componentType": 5125,
      "count": 10320,
      "type": "SCALAR"
    }
  ],
  "asset": {
    "extras": {
      "author": "Streetlight (https://sketchfab.com/windowsmedies)",
      "license": "CC-BY-4.0 (http://creativecommons.org/licenses/by/4.0/)",
      "source": "https://sketchfab.com/3d-models/streetlamp-urban-c5793f004d9f4bdf9979ff179619e9c0",
      "title": "Streetlamp URBAN"
    },
    "generator": "Sketchfab-13.17.0",
    "version": "2.0"
  },
  "bufferViews": [
    {
      "buffer": 0,
      "byteLength": 41280,
      "name": "floatBufferViews",
      "target": 34963
    },
    {
      "buffer": 0,
      "byteLength": 17688,
      "byteOffset": 41280,
      "byteStride": 8,
      "name": "floatBufferViews",
      "target": 34962
    },
    {
      "buffer": 0,
      "byteLength": 53064,
      "byteOffset": 58968,
      "byteStride": 12,
      "name": "floatBufferViews",
      "target": 34962
    }
  ],
  "buffers": [
    {
      "byteLength": 112032,
      "uri": "scene.bin"
    }
  ],
  "materials": [
    {
      "doubleSided": true,
      "name": "Material",
      "pbrMetallicRoughness": {
        "metallicFactor": 0.0,
        "roughnessFactor": 0.6
      }
    }
  ],
  "meshes": [
    {
      "name": "Object_0",
      "primitives": [
        {
          "attributes": {
            "NORMAL": 1,
            "POSITION": 0,
            "TEXCOORD_0": 2
          },
          "indices": 3,
          "material": 0,
          "mode": 4
        }
      ]
    }
  ],
  "nodes": [
    {
      "children": [
        1
      ],
      "matrix": [
        1.8024558038595072e-16,
        1.8024558038595072e-16,
        -0.8117539286613464,
        0.0,
        -0.8117539286613464,
        4.00225586862814e-32,
        -1.8024558038595072e-16,
        0.0,
        0.0,
        0.8117539286613464,
        1.8024558038595072e-16,
        0.0,
        0.0,
        0.0,
        0.0,
        1.0
      ],
      "name": "Sketchfab_model"
    },
    {
      "children": [
        2
      ],
      "name": "streetlampURBAN.obj.cleaner.materialmerger.gles"
    },
    {
      "mesh": 0,
      "name": "Object_2"
    }
  ],
  "scene": 0,
  "scenes": [
    {
      "name": "Sketchfab_Scene",
      "nodes": [
        0
      ]
    }
  ]
}
